<?xml version="1.0" encoding="utf-8"?>
<!-- Generator: Adobe Illustrator 26.0.2, SVG Export Plug-In . SVG Version: 6.00 Build 0)  -->
<svg version="1.1" id="Слой_1" xmlns="http://www.w3.org/2000/svg" xmlns:xlink="http://www.w3.org/1999/xlink" x="0px" y="0px"
	 viewBox="0 0 1366 768" style="enable-background:new 0 0 1366 768;" xml:space="preserve">
<style type="text/css">
	.st0{fill:#EED220;}
	.st1{fill:#FF9F20;}
	.st2{fill:#FF8C00;}
	.st3{fill:none;stroke:#F8AE93;stroke-width:10;stroke-miterlimit:10;}
	.st4{fill:#FBB03B;}
	.st5{fill:none;stroke:#FBB03B;stroke-miterlimit:10;}
</style>
<g>
	<g>
		<g>
			<g>
				<g>
					<path class="st0" d="M974.2,450.32c-0.26,0.85-0.17,2.81,0.43,2.43l0.48-3.3L974.2,450.32z"/>
					<path class="st0" d="M978.3,456.44c0.71-1.64,1.37-4.49,0.77-7.51c-0.54,3.2-0.75,1.9-1.41,5.7c-0.62,0.4-1.1-1.04-1-2.26
						c-0.21,0.86-0.93-0.72-1.26,1.35c0.77,2.59,1.88,2.65,2.88,0.52C978.53,454.95,978.33,455.82,978.3,456.44z"/>
					<path class="st0" d="M1040.88,448.18l-0.5-0.26C1040.54,448.1,1040.71,448.17,1040.88,448.18z"/>
					<path class="st0" d="M1078.79,435.6c-0.22,0.21-0.18,0.56-0.05,0.83C1078.88,436.1,1078.98,435.82,1078.79,435.6z"/>
					<path class="st0" d="M1087.79,434.37c-0.25,0.06-0.43,0.15-0.64,0.22C1087.53,434.68,1087.83,434.65,1087.79,434.37z"/>
					<path class="st0" d="M1040.88,448.18l1.31,0.68C1041.93,447.81,1041.43,448.26,1040.88,448.18z"/>
					<path class="st0" d="M985.83,447.79c-0.18,0.19-0.3,0.51-0.41,0.93c0.15-0.16,0.29-0.3,0.44-0.41
						C985.86,448.14,985.85,448,985.83,447.79z"/>
					<path class="st0" d="M1024.96,455.6l-0.31,0.09c0.01,0.39,0.04,0.85,0.09,1.37L1024.96,455.6z"/>
					<path class="st0" d="M1012.01,459.34c0.33,0.05-0.19-2.71-0.35-3.94c0.09,1.17-0.01,1.75-0.22,2.03
						C1011.55,457.95,1011.73,458.57,1012.01,459.34z"/>
					<path class="st0" d="M990.29,458.65l-0.31,0.44C990.06,458.96,990.21,458.82,990.29,458.65z"/>
					<path class="st0" d="M1034.35,453.58c0.14,0.39,0.29,0.73,0.4,0.93C1034.65,454.17,1034.51,453.87,1034.35,453.58z"/>
					<path class="st0" d="M1090.49,196.29c-0.08,0.18-0.1,0.31-0.17,0.47C1090.52,196.53,1090.62,196.36,1090.49,196.29z"/>
					<path class="st0" d="M1100,214.61l-0.2,0.15c-0.01,0.53-0.02,1.06-0.01,1.58C1099.85,215.77,1099.92,215.19,1100,214.61z"/>
					<path class="st0" d="M1100.98,424.02c-0.04,0.01-0.05,0.02-0.08,0.04C1100.96,424.59,1101.04,424.35,1100.98,424.02z"/>
					<path class="st0" d="M1052.33,316.36c-1.25,2.5-3.78,0.36-4.88,3.52C1048.22,319.09,1051.96,318.57,1052.33,316.36z"/>
					<path class="st0" d="M986.19,448.11c0.16-0.05,0.32-0.1,0.49-0.1C986.45,447.96,986.3,447.99,986.19,448.11z"/>
					<path class="st0" d="M1047.45,319.89l-0.02,0.02l-0.09,0.31C1047.39,320.08,1047.41,320,1047.45,319.89z"/>
					<path class="st0" d="M1103.88,385.83c-0.43,0.27-0.71,0.57-0.98,0.86C1103.16,386.57,1103.45,386.36,1103.88,385.83z"/>
					<path class="st0" d="M1099.64,413.44l0.56-0.46C1099.88,413.12,1099.73,413.28,1099.64,413.44z"/>
					<path class="st0" d="M1094.18,376.81c0.04-0.35,0.33-0.62-0.19-0.75c-0.11,0.1-0.17,0.19-0.24,0.28
						C1094.16,376.26,1094.4,376.32,1094.18,376.81z"/>
					<path class="st0" d="M1088.12,366.99c-0.14,0.17-0.23,0.33-0.35,0.5c0.11,0.07,0.23,0.16,0.34,0.24L1088.12,366.99z"/>
					<path class="st0" d="M1050.7,195.27c0.36,0.75,0.63,1.6,0.86,2.44C1051.13,195.75,1052.8,194.84,1050.7,195.27z"/>
					<path class="st0" d="M986.04,449.36c-0.03-0.71,0.01-1.07,0.15-1.24c-0.12,0.05-0.22,0.12-0.33,0.2
						C985.89,448.73,985.93,449.12,986.04,449.36z"/>
					<path class="st0" d="M1074.97,387.91l-0.59-1.79C1074.41,386.7,1074.63,387.34,1074.97,387.91z"/>
					<path class="st0" d="M997.23,259.91l-0.46-0.34C996.76,259.76,996.89,259.89,997.23,259.91z"/>
					<path class="st0" d="M1071.36,381.93c0.69-0.77,1.01-1.34,1.16-1.82c-0.22,0.06-0.42,0.09-0.72,0.22L1071.36,381.93z"/>
					<path class="st0" d="M1051.57,197.74c-0.01-0.01-0.01-0.03-0.01-0.03S1051.56,197.73,1051.57,197.74z"/>
					<path class="st0" d="M1064,190.08c-1.99-0.02-0.8,3.65-1.13,5.78c-2.19,1.14-1.16-2.67-2.05-4.52
						c-1.39,1.07-2.22,4.51-3.24,4.46c-0.13-0.6-0.34-0.8-0.17-1.58c-1.2,3.04-4.32,0.54-5.53,4.41c-0.16-0.31-0.26-0.61-0.32-0.88
						c0.49,1.81,0.75,3.67,0.85,5c-0.78,0.15-1.15,2.49-1.74,0.13c0.48,0.01,0.4-0.96,0.53-1.74l-0.68,1.15
						c-1.18-3.35,0.96-1.34,0.65-3.89c-1.49,1.32-2.94,4.42-4.29,3.63c-0.75-3.32,2.7-1.54,0.64-4.3l2.09,1.03
						c-2.18-5.12,1.23,0.22-0.88-5.29c-2.71-0.63-2.63,2.11-5.27,1.5c-0.28,1.95,0.61,2.73,0.34,4.68c-2.95,3.89-4.11-8-5.93-3.12
						c-0.14,1.17-0.1,2.83-0.3,3.95c-0.1,0.56-0.25,0.99-0.52,1.15c-0.25,0.16-0.65,0.07-1.27-0.4c0.01-1.3,0.03-2.6,0.06-3.91
						c-2.9,0.14-0.53,5.68-3.85,3.77c0.15-1.59,1.85-1.71,1.34-2.07c-2.52-2.56-0.85,2.42-2.2,2.74l-1.12-3.22
						c-2.84,1.27-5.17,4.62-7.81,6.35c-0.22-1-0.09-2.2-1.18-2.88c-0.8,0.77-1.68,1.36-2.65,1.79c-0.48,0.22-0.98,0.4-1.49,0.56
						c-0.26,0.08-0.52,0.15-0.78,0.21l-0.4,0.09l-0.48,0.13c-2.59,0.64-5.61,1.35-8.35,2.32c0.09,1.19,0.24,2.36,0.45,3.5
						c-0.33,0.26-1.5-0.41-1.54-1.16c-2.17,0.55,1.2,1.42,1.37,2.86c-0.57,0.85-2.14-0.22-2.33-1.31c-0.27,2.05-0.61,4.49-1.25,6.32
						c-0.64,1.81-1.82,3.23-4.06,3.77l-0.36-1.03c-1.23,0.75-0.41,2.27,0.36,3.56c0.76,1.33,1.44,2.36-0.34,2.98l-0.26-0.68
						c-0.96,1.29-1.6,2.83-1.98,4.42c-0.2,0.8-0.33,1.6-0.43,2.41c-0.09,0.78-0.16,1.55-0.21,2.27c-0.03,0.33-0.05,0.66-0.08,0.98
						c-0.03,0.3-0.06,0.6-0.1,0.89c-0.09,0.59-0.22,1.17-0.43,1.73c-0.41,1.13-0.97,2.2-2.03,3.25c2.12,0.24,1.72,1.48,1.62,2.67
						c-0.12,1.19-0.05,2.34,2.9,2.04c-1.22,1.54-2.11,2.21-2.86,3c-0.76,0.81-1.34,1.71-1.84,3.89c-0.03,1.13,3.93,0.66,4.86,1.68
						l-2.97,0.84c1.19,0.28,2.38,0.53,3.57,0.76l-3.27,1.92l1.11,0.89c0.03-0.5,1.02-1.36,1.89-1.55c0.94,0.65,0.75,1.84,0.17,2.96
						c-0.57,1.11-1.55,2.16-2.29,2.45c1.29,1.08,2.61,2.07,3.93,3.04c-1.19,0.37-1.84-0.13-2.78-0.37c3.75,0.95-2.87,1.57,0.57,2.45
						c0.55-0.52,1.76-0.55,2.35-0.75c-1.34,1.62-0.47,3.79,0.93,4.97l-2.08,0.56c0.73,3.03,3.53,5.33,4.86,8.25
						c0.41-1.46,3.85-2.79,4.57-2.09l-2.78,1.73c2.08-0.31,0.69-1.41,3.45-1.34c0.17,1.24-3.01,2.31-4.26,2.14l1.64,0.83
						c-0.84,0.49-1.45,0.41-2.61,0.86c2.09-0.32-1.91,3.61,1.62,2.88l-0.84,0.48c1.24,2.72,2.88,3.64,4.14,5.97
						c2.57-1.14,2.44,0.06,4.84-0.19c0.01,2.13-1.04,5.06,0.24,7.12c2,0.89,2.35-0.62,4.18-0.69c-2.24,1.25-0.93,3.29-3.14,3.01
						c1.69,2.39,2.15,3.09,5.75,5.32c0.73-0.86,0.91-1.47,1.79-1.69c0.69,0.37-0.21,1.83-1.33,2.36l-0.32-0.03
						c2.69,0.86,2.25,3.82,2.07,6.71c-0.19,2.88-0.16,5.62,2.99,5.5l-0.32-0.01c1.42,0.44,2.83,0.84,4.24,1.23
						c0.54,1.53-2.11,0.34-2.74,2.21c2.81,0.27,3.52,1.51,4.06,2.8c0.54,1.28,0.89,2.61,2.92,2.93c-2.31,3.2-0.96,4.75,0.71,6.11
						c1.67,1.37,3.65,2.58,2.68,5.24l1.29-1.24c1.85-0.47-0.22,1.36-0.19,2.06c1.04-0.92,0.74-1.65,1.8-1.87
						c5.7,3.83,6.5,12.4,9.59,18.67c1.22,2.23,7.99-4.77,6.72,0.34l-3.11,1.43c6.25,1.32,6.44,7.93,12.14,9.49
						c-0.77,0.27-1.53,0.9-1.83,0.53c-1.18,2.33,2.37,3,3.78,1.65c0.21,0.62-1.28,1.23-1.83,2.14c-0.3,0.74,0.6,0.67,1.4,0.65
						c0.8-0.02,1.48,0.04,0.65,0.91c-0.27,0.29-0.77,0.27-1,0.26c1.26-0.27,1.24,2.25,3.21,0.23c-0.22,2.02,2.73,1.88,2.06,3.9
						c3.1-0.89,0.26,3.27,4.16,1.26c-3.94,2.22-1.51,4.57,0.94,4.51c-1.38,0.36-0.67,1.62-2.54,2.2c0.76,1.14,2.17,1.81,4.01,0.37
						c-1.62,2.52,0.03,3.09,1.43,3.59l0.26,0.09c0.07,0.02,0.14,0.02,0.2,0.03c0.13,0.02,0.25,0.04,0.35,0.07
						c0.21,0.06,0.33,0.16,0.35,0.32c0.02,0.32-0.45,0.88-1.91,1.84c2.98,0.42,5.07,1.59,6.17,4.25c-2.26-0.04-2.41-0.62-2.57-1.18
						c-0.17-0.52-0.41-0.91-2.74-0.5c1.98,0.94,5.95,2.84,4.51,5.14c-0.72,0.53-1.85-0.64-2.63-0.89c0.41,0.59,0.48,1.19,0.5,1.76
						c-0.03,0.57-0.2,1.11-0.33,1.65c-0.17,0.54-0.33,1.07-0.32,1.64c-0.04,0.57,0.08,1.2,0.46,1.95c-0.39-0.16-0.74-0.55-0.99-0.88
						c0.01,0.46-0.97,0.67,0.94,1.41l-0.34-0.6c1.51,0.21,2.82,1.17,3.84,2.27c1.03,1.09,1.83,2.31,2.51,2.68
						c-4.96-3.23-2.46,1.65-8.52-2.86c0.23,0.42,0.93,1.2,2.17,1.79c-0.58,0.21-1.34-0.08-2.5-1.18c0.21,1.84,2.41,2.53,1.54,3.76
						c-0.83-0.54-0.99-1-1.91-1.74c0.63,0.81,1.24,1.65,1.52,2.37c0.27,0.72,0.16,1.3-0.55,1.57c-0.43-0.42-1.14-0.78-0.91-1.06
						c-0.24,0.48-0.27,1.06-0.21,1.73c0.06,0.67,0.19,1.42,0.22,2.1c0.03,0.68,0.02,1.41-0.25,1.89c-0.25,0.48-0.75,0.93-1.42,0.85
						c-2.31-3.67-1.38-0.72-3.54-3.76c0.08,0.44,0.07,0.82,0.06,1.26c0.37,0.49,0.76,0.96,1.18,1.43c-0.09,0.04-0.15,0.11-0.2,0.21
						c-0.06,0.1-0.05,0.21-0.18,0.41c-0.19,0.36-0.34,0.77-0.5,1.15c-0.32,0.76-0.69,1.38-1.52,1.13l0.21-1.85l-2.01,1.88l2,0.54
						c-0.36,2.37,2.36,4.1,0.2,4.07c0.16-0.51-1.27,0.63-2.96-0.96c0,0,0,0,0-0.01c-0.03,0.69-0.06,1.4-0.25,1.89
						c-0.19,0.49-0.57,0.79-1.14,0.56c-0.7-0.99-1.68-3.78-2.14-4.44c0.25,0.75,0.33,1.19,0.14,1.58c-0.21,0.39-0.53,0.67-0.87,0.94
						c-0.67,0.55-1.35,1.13-1.1,2.83c-0.04-0.83-0.79-2.64-1.03-2.97l0.46,2.56c-0.91-0.5-1.14-0.83-1.64-2.31
						c-1.95,0.3,2.37,4.15-0.53,3.13c0.09-0.26-0.13-0.58,0.07-1.08c-2.51-0.13-3.55,3.14-5.99,2.71c-1.88-3.31,1.4-1.5-0.38-4.22
						c-2.53,1.68-4.36,6.37-7.46,6.44l0.65,0.22c1.24,5.18-2.9-1.82-3.56,1c0.23-0.49-0.41-2.96-0.33-2.36
						c-1.09-0.11-1.93,0.49-2.94,1.44c-0.97,0.95-2.02,2.3-3.25,3.55l-0.04-1.42c-1.52-0.8-3.25,0.27-4.68,0.06
						c0.02,1.41-0.76,1.42,0.25,3.18c-3.05-3.13-4.57-1.6-6.03,0.08c-1.45,1.67-2.83,3.48-5.41,0.84c0.41-0.13,0.66-1.42,0.33-1.33
						l-2.58,2c0.83,2.17,0.75,1.25,1.83,2.82c-0.01,1.42-0.57,2.67-1.31,2.87c0.94-1.84-0.97-3.58-1.87-4.68
						c0.28,0.66,0.28,1.47,0.51,2.15c-2.58-3.58,0.92,4.57-1.89,2.43l-0.19-1.2c-0.63,0.8-0.97,2.54-1.91,2.42
						c-1-2.51,0.54-1.42,0.06-3.57c-1.14,0.45-1.15,5.5-2.87,3.18c0.34-0.84,1.06-1.04,1.39-1.88c-1.92-2.76-1.86-1.95-2.84-2.23
						l0.1,0.05l-2.32-0.92l0.7,0.71c0.07,7.14-2.73,1.93-3.8,6.82c1.08-4.65-0.19-2.52-0.67-5.51c-0.7-0.71-1.7-1.46-1.65-2.34
						c-0.46,2.6-2.02-1.53-2.64,2.25c-0.26-0.94-1.05,0.13-1.34-2.32c-1.08,1.02,0.65,1.6,0.8,2.82c-1.26,3.68-5.31-3-7.12,2
						c-1.99,2.29-1.85,5.61-3.85,7.59c-1-1.42,0.05-3.6,0.05-3.6c-1.43-1.23-2.26-0.83-3.24,0.43c0.11-0.87-0.22-1.55-0.7-2.59
						c-0.85,0.38-0.14,3.6-1.51,2.32c0.08-1.1,0.13-2.86,0.41-3.99c-0.9,1.02-1.73,2.94-2.74,3.92c-0.44-1.66,0.42-2.63,0.67-3.77
						c-1.1,0.89-2.91,1.79-3.14,4.5l0.86,0.9c-0.45,0.16-0.38-2.29-0.1-2.8c0.86-2.17,1.56,0.81,1.72,1.78l-0.73,0.69
						c0.64,2.83,1.46,2.51,2.27,1.52c0.82-1,1.61-2.68,2.41-2.62l-0.14,4.21c0.42-1.21,0.82-2.43,1.2-3.64
						c0.5,1.02,1.08,3.29,0.35,4.02c1.48,1.87,0.83-1.61,2.18,0.5c0.17,0.34,0.15,0.54,0.07,0.72l0.96-1.4
						c-0.09,0.9,0.67,2.87-0.15,2.39c2.52,2.02,2.82-3.65,4.16-0.69l-0.13,0.28c2.6-1.92-0.28-3.06,1.15-6.98l2.9,7.1l-0.33-3.05
						c0.31,0.05,0.94,0.16,1.08,1.37c0.66-2.27-0.45-1.26-0.23-3.32c1.97,2.43,3.57-2.09,4.91,2.6c0.01-2.38-1.71-1.47-0.56-3.36
						c1.52,5.02,1.53-1.25,3.3,0.83c0.17,2.72-1.32,1.58,0.45,3.67c-0.21-4.62,2.71,0.44,3.63-0.66c-0.74-3.56,2.03-2.01,3.57-3.62
						c0.17,1.22,3.88,1.11,5.9,1.94l0.1,0.6c-0.59-3.64,1.31-3.42,2.37-4.49c0.52,2.14,0.52,3.04,0.08,4.17l1.19-0.34
						c-0.02-1.21,0.19-1.91,0.84-2.52l0.42,2.73c1.55-0.58,2.31-3.99,4.83-2.8c-0.6-2.49-3.54-6.4-1.91-8.65
						c0.46,1.31,1.19,3.56,0.8,4.26c0.13-0.22,0.33-1.29,0.86-0.83l-0.2,2.48c1.2,0.72-0.06-2.01,0.73-2.01
						c0.54,1.9,0.93,1.2,1.27,2.73c-0.13,0.24-0.86-0.6-0.93,0.23c0.92,0.1,2.25,0.93,3,2.27c-0.39-1.06-0.75-2.55-0.22-2.97
						c1.52-0.6,1.21,2.12,2.41,2.82c-0.01-1.42,1.39-0.36,0.57-3.2c0.46-0.12,0.94,1.17,1.35,1.88c0.43-1.49,3.65-1.51,1.83-4.23
						l-0.27-0.13c0.02-0.07,0.07-0.09,0.09-0.16c-0.01,0,0,0-0.01,0l0.01,0c0.88-1.8,2.37-1.83,3.88-1.65
						c1.51,0.17,3.09,0.62,4.24-0.41l0.28,0.94c1.25-1.56,3.33-1.73,3.77-4.12c0.46-0.15,1.66,1.35,1.83,2.53
						c0.97-1.11,0.73-2.2,2.99-1.26c-0.64,2.05,0.92,1.3-0.82,1.62c1.84,0.26,2.75,1.62,3.5-1.52c0.29,2.59,2.28,2.56,2.76,1.57
						l-1.73-1.29c0.7-0.65,1.5-0.72,2.32-0.8l0.79,3.26c2.34,1.27,3.19-0.91,4-2.73c0.82-1.83,1.62-3.29,4.16-0.69
						c-0.09-2.49-2.35-0.78-2.67-3.6c0.8-0.1,2.05,0.79,3.16,1.67c0.57,0.43,1.05,0.89,1.52,1.18c0.53,0.27,0.95,0.41,1.13,0.33
						c0.47,0.01,0.9-0.11,1.14-0.24c0.17-0.1,0.28-0.27,0.33-0.5c0.11-0.46,0.03-1.12-0.05-1.81c-0.17-1.37-0.36-2.81,0.89-2.76
						c-0.8-0.91-2.52-3.59-1.62-5.34c1.54-0.33,3.98,3.52,3.59,4.81c-0.27,0.26-0.6,0.01-0.78-0.35c-0.23,0.61-0.55,1.36,0.58,2.21
						l-0.39-1.14c1.23,0.71,3.01-0.38,3.5,1.57c0.48-1.54-0.49-1.95-1.52-2.09c0.63,0.15,1.11,0.14,1.52,0.04
						c0.2-0.05,0.39-0.12,0.56-0.21c0.2-0.1,0.28-0.15,0.59-0.33c0.52-0.31,1.03-0.64,1.63-0.92c0.55-0.35,1.15-0.71,1.96-0.97
						c-0.81-0.19-1.96-1.06-1.58-1.34c2.23-0.8,2.02-1.49,1.7-2.26c-0.36-0.77-0.99-1.62-0.34-2.6c2.2,0.3,2.73,3.4,3.34,0.55
						c1.94-0.31,2.6,1.84,2.83,3c0.04-1.67,0.95-2.28,2.17-2.61c1.2-0.34,2.54-0.44,3.14-0.9l-0.01,1.64
						c0.02-0.99,0.41-1.5,0.81-2.03c-0.8-0.24-1.59-0.5-2.38-0.76c0.79-0.36,1.14-0.89,1.95-0.33c-0.89-1.49-3.57-1.75-4.59-4.09
						c0.74-0.05,0.86-0.8,1.09-1.36c0.23-0.57,0.63-0.94,2.08-0.32c-1.18,0.99-0.46,1.32,0.46,1.71c0.91,0.38,2.07,0.8,1.59,2.07
						c-0.03-0.63,0.26-1.15,1-1.59c0.36,0.08,0.52,0.41,0.57,0.68c3.96-1.31-2.42-2.93-1.06-5.49c1.44,1.11,3.36,0.79,3.21,0.15
						c-0.53,1.14-2.91-0.71-3.75-2.21c2.01-1.17-0.2-2.23,0.27-3.04l-0.97,0.78c-1.53-0.97-1.02-1.69-1.16-2.99
						c1.35,0.33,0.53,1.33,1.26,1.12c-1.23-1.13-0.29-1.58,0.86-2.14c1.15-0.53,2.4-1.23,1.6-2.43c1.38-0.65,3.28,0.63,4.27-0.05
						c-0.91-1.41-0.22-1.92,0.54-2.51c0.77-0.56,1.53-1.24,0.72-2.65c-2.45,0.56-1.87,0.64-4.03-1.23c0.43,1.34,0.9,2.77,1.2,4.18
						c-0.99-1.03-2.03-2.02-3.12-2.94c-0.12,1.12,1.18,2.6,0.66,3.23c-1.73-1.48-1.17-1.22-3.21-1.03c1.89-0.44,1.5-1.3,0.9-2.13
						c-0.59-0.85-1.3-1.64-0.09-2.45l5.9,0.29c0.68-0.74,0.85-1.48,0.7-2.21c-0.17-0.74-0.61-1.46-1.1-2.16
						c-0.48-0.69-1.06-1.48-1.46-2.28c-0.4-0.82-0.64-1.71-0.53-2.82c-0.22,0.52-0.47,1.03-0.72,1.52c-1.21-0.04-1.4-0.6-1.49-1.3
						c-0.08-0.69-0.06-1.55-0.71-2c1.91-0.51,2.32-1.54,3.24-2.55c-0.67,0.3-0.92-0.45-1.51-1.1c-0.59-0.64-1.51-1.15-3.33-0.39
						c0.51-0.89,1-1.82,1.45-2.76c-0.17-0.82-0.69-1.23-1.36-1.41c-0.35-0.11-0.67-0.06-1.03-0.02c-0.36,0.04-0.75,0.11-1.14,0.18
						c-1.56,0.27-3.17,0.54-3.47-0.57c2.17-0.58,2.84-2.15,4.9-1.76c-0.36-0.61-0.39-1.34-1.56-0.63c0.84-1-3.32-0.33-2.08-1.89
						c-0.9,0.18-2.73,1.16-3.02,0.35c0.3-0.28,0.84-0.5,0.84-0.5c-0.84,0.5-1.82-0.45-3.31,1.31c4.08-5.19-3.75-5.37-0.49-10.02
						c-1.52-1.12-3.25-2.53-4.35-3.74c0.54-0.27,0.79-0.58,0.81-0.21c0.07-1.47-1.3-0.89-2.63-0.34c-1.33,0.55-2.64,1.09-2.63-0.51
						c1.63-3.05,2.19-0.05,2.61-1.45c4.72-4.51-2.56-1.69-0.67-5.34l0.54,0.05c0.91-2.35-3.79-0.68-4.7-2.5c0,0,0.5-0.29,0.76-0.62
						c-3.41,1.09-5.89-0.17-7.81-1.04c2.33-1.17,1.59-0.2,3.34-2.13c-0.83-0.42-3.03,2.85-4.67,2c0.72-1.32,0.87-3.04,2.88-4.92
						l1.14,1.14c2.22-2.91-1.42-1.51-1.48-2.56l1.27-0.91c-1.95-1.56-5,0.91-6.46-1.3l-0.74,0.96c-3.93,1.35,0.93-2.32-2.22-1.6
						l2.79-2.83c-1.34-0.13-5.05-0.17-6.7-1.04c2.89-1.08,5.3-0.48,7.42-0.62c-0.57-0.74-2.23-2.29-4.05-1.45
						c0.53,0.06,1.58-0.18,1.35,0.49c-3.14,1.06-5.28,0.82-6.4-0.69c6.18-4.52-1.49-4.99,2.31-9.78c-4.3-0.89-3.15-5.94-5.81-8.66
						c-3.89,4.7-0.81-0.77-5.52,3.13c-0.85-0.47-0.98-0.81-0.71-1.11l1.3-4.34c1.05-1.57,1.57-0.14,2.62-1.03
						c-0.76-1.8,1.6-2.19,2.16-4.15c-1.61,1.51-2.9,1.34-2.86-0.02l-1.38,2.88c-4.2-0.23,2.81-4.84-1.3-5.08l2.04-0.44
						c-1.72-0.44-2.69-3.96-7.49-2.38c0.47-0.58,1.71-1.74,2.39-1.5c-0.54-1.5-2.52-2.24-4.26-3.17c-1.73-0.92-3.17-1.99-2.44-3.81
						l1.43-0.51c-0.66-0.31-2.96,0.43-2-0.95c0.56-0.26,1.43-0.49,1.38-0.78c-0.6-0.03-3.06-0.18-2.66-1.3l1.81-0.17
						c0.31-3.66-5.85-2.47-7.98-4.51c3.96-1.9,4.17-4.8,4.28-6.26l0.58-0.22c-0.55-1.82-2.05-2.91-3.8-3.86
						c-1.79-1.02-3.82-1.89-5.37-3.15c3.36-4.1-1.44-7.7-0.36-11.87c-0.52,0.8-3.16,1.33-3.81,0.94c0.5-1.08-3.7-0.82,0.07-2.3
						l0.04,0.29c3.42-2.11,1.83-3.14,1.48-4.31l-4.98,1.77c2.96-2.95,1.6-4.57,0.24-6.09c-0.66-0.75-1.36-1.48-1.46-2.23
						c-0.1-0.75,0.35-1.52,1.9-2.35c-1.49-0.36-1.63-1.21-3.09-1.62l2.77-0.57c0.12-1.01,0.3-1.73,0.26-2.47
						c-0.06-0.75-0.22-1.49-0.68-2.54l2.06,0.21c0.03-0.59-2.07-0.76-4.16-0.98c-2.1-0.22-4.24-0.51-4.36-1.16l4.2-0.54
						c-0.07-0.56,0.19-1.11,0.47-1.65l0.45-0.8l0.21-0.39c0.07-0.1,0.14-0.14,0.2-0.22c0.5-0.57,0.45-0.55-1.22-1.62
						c0.59,0.22,1.72,0.63,1.87,0.76c0.04-0.06,0.26-0.1,0.47-0.12c0.21-0.04,0.39-0.01,0.44-0.14c0.08-0.22-0.32-1.01-2.84-2.45
						c1.61,0.98,1.86,0.75,1.76-0.12c-0.11-0.86-0.54-2.39-0.74-3.48l2.06,1.89c-2.07-3.11-2.79-3.8-2.5-5.67
						c0.52-0.04,1.9,1.22,1.04,1.12c0.95,0.02,0.6-0.58,0.29-1.22c-0.31-0.63-0.57-1.32,0.45-1.3l0.92,1.6
						c0.92-0.64,0.16-1.2-0.76-3.18c-0.1-0.66,0.47-0.91,1.22-0.69c0.76,0.21,1.68,0.9,2.44,1.91c-0.79-1.32-1.36-3.41-0.38-3.13
						c0.54,0.79,0.63,1.41,0.69,1.72c2.21,0.92,1.36-4.3,3.85-2.41c0.39,0.83,0.67,1.22,0.89,1.43c-1.62,0.61-2.97,1.11-2.94,0.87
						c1.13,2.31,2.53,2.14,3.08,5.81c0.05-1.1,0.06-2.8,0.31-4.15c0.24-1.36,0.72-2.36,1.56-2.04c0.15,0.21,0.3,0.41,0.49,0.76
						l-0.02,0.32c0.37,0.13,0.53-0.19,0.62-0.68c0.54,0.25,0.89,0.46,1.27,0.36c0.85,1.95,1.76,0.61,2.4,0.53
						c-0.88-2.67,0.11-2.5-1.36-4.48c0.16,0.16-0.03,0.35-0.43,0.61c-0.07,0.11-0.18,0.19-0.19,0.37c-0.01-0.07-0.02-0.16-0.03-0.25
						c-0.41,0.21-0.94,0.46-1.56,0.73c0.03-1.53,0.23-2.87,1.45-1.62c-0.21-1.83-0.35-3.73-0.36-4.63c2.13,3.45,4.36,5.07,5.13,7.38
						c0.78-0.99,1.85-1.48,2.86-2.38c1.18-0.93,2.17-2.29,2.49-5.02c0.57-0.78,1.02,1.37,1.41,2.15c-0.31,0.59-0.78,0.58-0.87,1.37
						c1.14-1.56,3.89-1.16,3.65-4.85c1.94,1.39-0.44,3.5,1.79,2.55l-0.15,1.16c2.69,2.58,4.13,0.01,5.77-2.35
						c1.61-2.36,3.49-4.49,6.27-0.92c-0.37-0.44-0.57-0.64-0.68-1.25c2.96,1.44,5.74,0.54,8.62,0.04c2.85-0.51,5.77-0.58,8.08,2.4
						c1.35,1.27,1.83-1.03,3.08-2.64l-0.22,3.03c0.71-1.05,1.44-2.09,2.21-3.11c1.4-1,1.95,1.07,2.35,2.84
						c0.21,0.89,0.4,1.71,0.76,2.08c0.36,0.38,0.88,0.29,1.91-0.55c0.21-0.65,0.41-1.31,0.6-1.97c0.3,0.33,1.01,0.42,1.49,0.61
						c0.28,0.11,0.5,0.27,0.56,0.52c0.07,0.26-0.02,0.62-0.42,1.11c0.29-0.25,1.47-1.55,1.22-0.43l-0.89,1.31
						c1.29-0.19,2.78-0.23,4.34-0.46c0.54,0.59,0.78,1.23,0.78,1.91c0,0.68-0.23,1.4-0.42,2.11c-0.18,0.71-0.27,1.43,0.29,2.13
						c0.51,0.68,1.75,1.3,3.28,1.41c1.16-0.28,2.18-1.5,2.61-2.72c0.23-0.61,0.39-1.24,0.47-1.77c0.09-0.53,0.14-0.98,0.06-1.25
						c-0.28-0.08-1.04-0.95-1.17-2.53l0.99-0.86c0.05-2.33,0.34-4.69,0.23-6.87c-0.02-1.09-0.29-2.14-0.73-3.1
						c-0.43-0.97-1.12-1.84-1.59-2.63c-0.19,0.48-0.27,0.96-0.34,1.43l-0.04,0.36l0,0.18l-0.03,0.65l-0.07,1.16l-0.09,0.97l-0.13,1
						l-0.14,0.79c0.05-0.26,0.14-0.7,0.18-1.06l0.09-0.69l0.07-0.79c0.03-0.3,0.05-0.61,0.06-0.91l0.06-1.15l0.04-1.34
						c0.01-0.2,0-0.11,0.01-0.13l0,0l0-0.01l0-0.19l0-0.09c0-0.01,0-0.04,0-0.03l0,0.17c-0.01,0.4-0.02,0.79-0.03,1.17
						c-0.01,0.31-0.02,0.62-0.03,0.91c-0.02,0.27-0.03,0.54-0.05,0.8c-0.02,0.42-0.07,0.88-0.1,1.23c-0.02,0.32-0.06,0.62-0.11,0.93
						c-0.06,0.5-0.15,0.97-0.22,1.29l-0.11,0.48l-0.06,0.21l-0.03,0.11l0.3-0.97c0.05-0.17,0.12-0.39,0.24-0.66
						c0.06-0.18,0.14-0.37,0.23-0.58c0.1-0.23,0.21-0.48,0.33-0.75c0.11-0.25,0.24-0.5,0.36-0.75l0.47-0.92l0.55-0.99
						c0.37-0.67,0.1-0.2,0.04-0.1c-0.4,0.63-0.91,1.18-1.46,1.7c0.94-1.57,2.29-2.82,2.4-3.96c-0.82,0.69-1.3,1.6-1.75,2.42
						c-0.46,0.81-0.86,1.57-1.74,1.78c0.28-1.1,0.69-1.98,0.8-2.48c0.06-0.25,0.03-0.4-0.15-0.45c-0.18-0.05-0.48,0.02-1.1,0.15
						c0.23-0.56,0.52-0.96,0.87-1.22c0.35-0.26,0.77-0.36,1.13-0.44c-0.34,0.12-0.76,0.06-1.16-0.01c-0.39-0.07-0.77-0.18-1.14-0.29
						c-1.14-0.3-2.07-0.44-3.09,0.72c0-1.46-1.08-1.76-1.87-2.13c-0.8-0.38-1.36-0.86-0.57-2.93c-0.37,0.43-1.18,1.07-2,1.59
						c-0.82,0.54-1.65,0.96-2.17,0.92c1.64-2.28,0.7-2.64-0.44-3.05c-1.13-0.41-2.38-0.84-1.57-3.56c-2.39,4.33-5.26,1.19-7.86,3.57
						c0.17-0.36,0.52-1.09,0.7-0.83c-1.27-0.53-1.51-2-2.3-2.98c-0.53,3.9-2.6,4.62-3.73,7c-1.37-3.84,1.15-4.56,0.87-8.2
						c-0.1,3.17-2.93,3.06-2.46,5.72c-1.13-2.37-0.98-1.15-1.57-4.41c-0.24,4.91-1.15,0.8-2.1,3.84c-1.73-2.38-0.53-4.59-2.38-3.05
						c-0.47-0.73-0.31-1.55-0.02-2.18C1063.57,190.52,1064,190.08,1064,190.08z M1022.53,205.77c-0.01-0.03-0.02-0.04-0.02-0.05
						c0.33-0.2,0.61-0.37,0.79-0.48C1023.14,205.34,1022.92,205.49,1022.53,205.77z M1019.15,207.26c0.45-0.09,0.97-0.29,1.51-0.55
						c0.5,0.84,0.77,1.81,0.42,1.91C1021,207.95,1019.99,207.78,1019.15,207.26z M1032.63,222.85c-0.28,0.51-0.59,0.04-0.84-0.49
						c0.18-0.11,0.37-0.28,0.61-0.56c-0.02-0.09-0.04-0.25-0.06-0.34C1032.47,221.98,1032.59,222.47,1032.63,222.85z"/>
					<path class="st0" d="M1032.24,219.1c0.04-0.08,0.04-0.2,0.12-0.25c-0.16-0.21-0.31-0.38-0.45-0.52
						c0.04,0.3,0.08,0.61,0.11,0.89C1032.09,219.18,1032.17,219.14,1032.24,219.1z"/>
					<path class="st0" d="M1040.29,447.88l0.09,0.04c-0.09-0.09-0.17-0.18-0.26-0.34C1040.2,447.7,1040.22,447.78,1040.29,447.88z"
						/>
					<polygon class="st0" points="994.67,256.19 995.35,255.99 994.66,255.83 					"/>
					<path class="st0" d="M1019.94,443.71c-0.1-0.23-0.23-0.46-0.41-0.64C1019.58,443.25,1019.75,443.47,1019.94,443.71z"/>
					<path class="st0" d="M1012.2,445l-1.3-0.72C1011.5,444.72,1011.9,444.91,1012.2,445z"/>
					<path class="st0" d="M1006.08,444.96c0.03,0.5,0.08,0.87,0.13,1.2c0.01,0.01,0.01,0.01,0.02,0.02L1006.08,444.96z"/>
					<path class="st0" d="M1081.84,407.36c0.01-0.06-0.01-0.13-0.06-0.21C1081.4,406.59,1081.51,406.91,1081.84,407.36z"/>
					<path class="st0" d="M1070.69,427.81c0.03-0.59,0.06-1.18,0.2-1.61C1070.33,426.25,1069.95,426.39,1070.69,427.81z"/>
					<path class="st0" d="M1075.04,388.11c0.03-0.01,0.01-0.01,0.04-0.02c-0.05-0.06-0.07-0.12-0.11-0.18L1075.04,388.11z"/>
					<path class="st0" d="M1072.1,425.61c-0.72-0.25-1.04,0.06-1.21,0.59C1071.35,426.17,1071.92,426.19,1072.1,425.61z"/>
					<path class="st0" d="M980.86,448.04l-0.27-0.1c0.02,0.19,0.01,0.34,0,0.45L980.86,448.04z"/>
					<path class="st0" d="M980.59,448.4l-0.27,0.35C980.45,448.74,980.57,448.71,980.59,448.4z"/>
					<path class="st0" d="M979.74,449.5l0.58-0.75C980.1,448.76,979.83,448.69,979.74,449.5z"/>
					<path class="st0" d="M988.42,448.47l-0.07-1.02C988.34,447.67,988.36,447.99,988.42,448.47z"/>
					<path class="st0" d="M990.68,447.8c-0.6-0.13-1.73-1.91-2.38-1.17l0.05,0.81C988.47,445.9,990.43,449.6,990.68,447.8z"/>
					<path class="st0" d="M1003.08,458.21l-2.21-0.37c0.58,0.99,1.35,2.32,0.47,2.77C1004.6,463.24,1000.32,458.34,1003.08,458.21z"
						/>
					<path class="st0" d="M1009.69,458.4c-1.01,0.74,0.34,1.54,0.42,2.15C1010.61,459.43,1010.72,459.15,1009.69,458.4z"/>
					<path class="st0" d="M1054.9,445.67l0.71,2.46C1056.33,447.5,1055.29,447.19,1054.9,445.67z"/>
					<polygon class="st0" points="1058.71,430.24 1057.39,429.04 1057.87,431.37 					"/>
					<polygon class="st0" points="1070.39,445.18 1070.17,445.67 1071.2,444.23 					"/>
					<path class="st0" d="M1091.38,367.46l-2.52,1.91C1089.66,369.59,1092.74,367.83,1091.38,367.46z"/>
					<path class="st0" d="M1067.28,342.21c0.99-1.28,1.18-2.64-0.38-2.11C1067.2,340.81,1066.73,342.17,1067.28,342.21z"/>
					<polygon class="st0" points="1021.45,256.82 1022.66,257 1021.42,256.26 					"/>
				</g>
			</g>
		</g>
	</g>
</g>
<g>
	<g>
		<g>
			<g>
				<g>
					<path class="st1" d="M1184.69,420.12c0.88-0.07,2.7-0.81,2.14-1.25l-3.27,0.66L1184.69,420.12z"/>
					<path class="st1" d="M1189.21,414.37c-1.74-0.15-4.67,0-7.4,1.42c3.23-0.38,2.03,0.21,5.86-0.3c0.56,0.44-0.67,1.33-1.86,1.62
						c0.87-0.07-0.39,1.11,1.68,0.74c2.18-1.55,1.95-2.52-0.38-2.81C1187.73,414.59,1188.61,414.51,1189.21,414.37z"/>
					<path class="st1" d="M1169.51,358.48l-0.1,0.55C1169.53,358.82,1169.55,358.64,1169.51,358.48z"/>
					<path class="st1" d="M1145.7,330.33c0.2,0.08,0.49-0.09,0.71-0.3C1146.14,330.07,1145.88,330.1,1145.7,330.33z"/>
					<path class="st1" d="M1145.77,324.45c-0.03,0.14-0.02,0.24-0.03,0.36C1145.93,324.55,1146.01,324.37,1145.77,324.45z"/>
					<path class="st1" d="M1169.51,358.48l0.26-1.44C1168.86,357.61,1169.42,357.94,1169.51,358.48z"/>
					<path class="st1" d="M1179.05,409.41c0.22,0.13,0.56,0.19,0.99,0.2c-0.19-0.11-0.35-0.22-0.49-0.34
						C1179.38,409.32,1179.24,409.36,1179.05,409.41z"/>
					<path class="st1" d="M1180.5,371.44l0.14,0.27c0.38-0.09,0.82-0.22,1.31-0.38L1180.5,371.44z"/>
					<path class="st1" d="M1186.37,382.82c0-0.31-2.62,0.7-3.79,1.09c1.13-0.31,1.71-0.33,2.01-0.19
						C1185.08,383.52,1185.66,383.23,1186.37,382.82z"/>
					<path class="st1" d="M1188.87,403.03l0.48,0.2C1189.21,403.18,1189.05,403.07,1188.87,403.03z"/>
					<path class="st1" d="M1176.45,363.02c0.34-0.24,0.63-0.47,0.79-0.63C1176.94,362.57,1176.68,362.79,1176.45,363.02z"/>
					<path class="st1" d="M880,276.45c0.15-0.14,0.22-0.24,0.35-0.36C880.09,276.24,879.94,276.37,880,276.45z"/>
					<path class="st1" d="M879.51,256.49l0.25,0.03c0.39-0.36,0.78-0.71,1.15-1.08L879.51,256.49z"/>
					<path class="st1" d="M1143.17,312.91c-0.01,0.04-0.01,0.05-0.01,0.08C1143.61,313.13,1143.46,312.98,1143.17,312.91z"/>
					<path class="st1" d="M1032.44,294.54c2.3,1.61-0.23,3.79,2.75,5.35C1034.5,299.02,1034.6,295.23,1032.44,294.54z"/>
					<path class="st1" d="M1179.29,409c-0.08-0.14-0.16-0.29-0.19-0.46C1179.09,408.78,1179.15,408.92,1179.29,409z"/>
					<path class="st1" d="M1035.19,299.89l0.01,0.02l0.29,0.14C1035.37,299.99,1035.3,299.95,1035.19,299.89z"/>
					<path class="st1" d="M1118,292.45c-0.18,0.47-0.25,0.85-0.31,1.23C1117.82,293.42,1117.93,293.08,1118,292.45z"/>
					<path class="st1" d="M1133.49,309.45l-0.1-0.65C1133.35,309.13,1133.41,309.32,1133.49,309.45z"/>
					<path class="st1" d="M1105.95,291.38c-0.19-0.3-0.15-0.7-0.64-0.48c-0.02,0.15-0.02,0.25-0.01,0.36
						C1105.57,290.95,1105.81,290.85,1105.95,291.38z"/>
					<path class="st1" d="M1095.07,287.94c0.01,0.22,0.05,0.4,0.08,0.6c0.13-0.03,0.27-0.04,0.4-0.06L1095.07,287.94z"/>
					<path class="st1" d="M904.38,297.4c0.37-0.74,0.85-1.47,1.36-2.18C904.5,296.79,902.89,296.27,904.38,297.4z"/>
					<path class="st1" d="M1180.53,408.88c-0.69,0.18-1.05,0.21-1.24,0.11c0.07,0.1,0.16,0.19,0.26,0.27
						C1179.95,409.16,1180.33,409.04,1180.53,408.88z"/>
					<path class="st1" d="M1097.83,312.02c-0.39-0.3-0.81-0.58-1.21-0.88C1096.91,311.54,1097.37,311.84,1097.83,312.02z"/>
					<path class="st1" d="M971.84,340.76l-0.5,0.26C971.51,341.1,971.68,341.05,971.84,340.76z"/>
					<path class="st1" d="M1092.31,310.17c0.04-1.02-0.1-1.68-0.22-2.09c-0.11,0.2-0.22,0.35-0.35,0.66
						C1091.89,309.18,1092.1,309.67,1092.31,310.17z"/>
					<path class="st1" d="M905.76,295.19c-0.01,0.01-0.02,0.02-0.02,0.02S905.75,295.2,905.76,295.19z"/>
					<path class="st1" d="M893.15,292.62c1.12,1.14,3.01-2.14,4.7-3.47c2.11,0.52-1.2,2.6-2.01,4.42c1.54,0.09,4.51-1.78,5.06-1.08
						c-0.36,0.49-0.39,0.77-1.05,1.19c2.91-1.31,2.83,2.42,6.4,0.7c-0.14,0.31-0.31,0.58-0.48,0.8c1.08-1.52,2.33-2.92,3.27-3.87
						c0.57,0.44,2.55-0.82,1.11,1.14c-0.27-0.35-0.96,0.34-1.62,0.76l1.26-0.27c-1.86,3.01-1.56,0.19-3.31,2.08
						c1.84,0.16,5.03-0.8,5.18,0.67c-2.14,2.65-2.69-0.93-3.65,2.3l-0.38-2.12c-2.67,4.83-0.52-0.99-3.52,4.05
						c0.99,2.26,3.03,0.45,4.02,2.71c1.66-1.04,1.77-2.16,3.43-3.2c4.66-0.3-3.96,7.97,0.84,6.26c1.99-1.24,5.09-4.22,4.76-1.42
						l-3.04,2.42c1.33,1.76,4.68-3.18,4.58,0.27c-1.33,0.82-2.12-0.24-2.19,0.32c-0.99,3.22,2.25-0.87,3.08-0.09l-2.16,2.64
						c2.06,1.19,5.59,1.16,7.88,2.48c-0.8,0.63-1.85,1.1-2.14,2.27c1.77,0.52,2.87,1.73,3.79,3.4c1.16,1.89,2.08,4.04,2.91,6
						c0.98-0.47,1.95-0.95,2.91-1.45c0.22,0.22-0.35,1.41-0.97,1.65c0.43,1.73,1.19-1.43,2.42-1.95c0.73,0.29-0.21,1.95-1.13,2.36
						c3.43-0.52,8.37-0.53,8.13,3.25l-0.85,0.45c0.08,0.24,0.19,0.35,0.4,0.41c0.22,0.07,0.48,0.04,0.76-0.04
						c0.56-0.16,1.21-0.55,1.83-0.92c1.23-0.73,2.28-1.35,2.31,0.32l-0.6,0.22c1.53,1.81,3.87,2.78,6,3.85
						c2.15,1.08,4.06,2.27,5.34,4.96c0.49-0.96,0.99-1.23,1.51-1.21c0.58,0.04,0.95,0.32,1.35,0.56c0.81,0.48,1.66,0.75,2.51-2.07
						c0.72,1.69,0.87,2.75,1.17,3.73c0.3,0.98,0.73,1.87,2.15,3.21c0.82,0.47,2.15-3.28,3.35-3.65l-0.62,3.02
						c0.74-0.95,1.46-1.9,2.17-2.85l0.11,3.78l1.23-0.57c-0.41-0.25-0.66-1.53-0.43-2.39c0.95-0.53,1.85,0.18,2.56,1.2
						c0.69,1.03,1.19,2.38,1.11,3.17c1.55-0.66,3.12-1.39,4.64-2.15c-0.17,1.23-0.95,1.6-1.62,2.34c2.65-2.96,0.22,3.3,2.7,0.53
						c-0.28-0.71,0.24-1.83,0.3-2.45c0.49,0.95,1.53,1.44,2.47,1.57c0.93,0.13,1.98-0.1,2.87-0.54l-0.25,2.14
						c3.44,0.38,7.47-1.71,11.38-2.84c-1.7-0.55-2.25-4.22-1.34-4.84l1.36,2.99c0.1-2.13-1.45-0.84-0.79-3.62
						c1.39-0.05,2.08,3.23,1.56,4.5c0.46-0.53,0.94-1.1,1.32-1.63c0.41,0.89,0.25,1.49,0.52,2.71c0.04-1.08,0.88-0.52,1.78-0.17
						c0.88,0.35,1.75,0.49,1.54-1.31l0.43,0.87c3.21-1.24,4.18-2.9,6.58-4.21c-1.15-2.56,0.07-2.46-0.23-4.84
						c2.11-0.04,5.08,0.9,7.02-0.47c0.73-2.02-0.76-2.31-0.96-4.11c1.37,2.17,3.25,0.8,3.14,2.98c1.1-0.88,1.79-1.45,2.44-2.24
						c0.64-0.78,1.19-1.77,2.04-3.53c-0.86-0.7-1.44-0.88-1.73-1.73c0.28-0.67,1.71,0.2,2.29,1.28l0.01,0.31
						c1.09-5.21,11.06,1.86,10.61-4.12l0,0.31l1.03-3.88c1.37-0.31,0.31,2.06,1.97,2.91c0.23-2.64,1.36-3.1,2.51-3.4
						c1.15-0.27,2.31-0.35,2.71-2.19c2.66,2.86,4.01,1.96,5.32,0.79c0.65-0.61,1.29-1.26,2.03-1.56c0.74-0.31,1.58-0.26,2.59,0.62
						l-0.84-1.58c-0.13-1.84,1.09,0.64,1.65,0.84c-0.59-1.25-1.24-1.21-1.26-2.25c2-2.01,4.83-2.39,7.53-1.96
						c0.68,0.07,1.35,0.25,2.01,0.42c0.67,0.17,1.26,0.35,2.04,0.53c1.46,0.36,2.88,0.71,4.22,0.92c0.97,0.09,0.92-2.22,1.02-4.08
						c0.09-1.85,0.39-3.28,1.87-1.29l-0.33,3.35c1.7-2.18,3.75-2.3,5.7-2.25c1.97,0.06,3.81,0.29,5.78-1.26
						c-0.28,0.74-0.34,1.72-0.7,1.7c0.6,2.43,2.74,0.35,3.03-1.58c0.54,0.29-0.08,1.78,0.14,2.8c0.28,0.74,0.83,0.05,1.34-0.52
						c0.51-0.57,1-1.03,0.98,0.18c0,0.39-0.34,0.74-0.5,0.9c0.68-1.08,2.1,0.7,2.22-2.1c0.52,0.78,1.19,0.64,1.85,0.51
						c0.65-0.11,1.27-0.16,1.54,0.76c0.76-1.4,1.35-0.81,1.84-0.44c0.51,0.38,0.99,0.59,1.79-1.45c-0.75,2.13-0.4,3.21,0.34,3.54
						c0.72,0.34,1.83-0.07,2.65-0.91c-0.76,1.17,0.27,1.62-0.73,3.26c0.99,0.3,2.18-0.13,2.87-2.35c-0.1,2.87,1.15,2.22,2.3,1.75
						c1.15-0.49,2.15-0.76,1.1,2.57c3.69-0.91,6.97-0.85,9.85-0.08c-1.36,1.79-2.02,1.46-2.69,1.19c-0.65-0.29-1.33-0.51-2.55,1.53
						c1.49-0.14,3.11-0.79,4.54-1.04c1.44-0.28,2.69-0.15,3.34,1.09c0.09,0.91-1.55,1.23-2.21,1.71c3.1,0.16,3.32,3.58,6.43,3.4
						c-0.32,0.27-0.79,0.42-1.16,0.52c0.33,0.16,0,1.01,1.55-0.32l-0.65,0.09c0.94-1.19,2.34-1.95,3.76-2.41
						c1.4-0.44,2.8-0.59,3.47-1.02c-5.18,2.85,0.16,2.79-6.65,6.02c0.47-0.02,1.47-0.25,2.58-1.07c-0.09,0.6-0.7,1.13-2.23,1.63
						c0.88,0.32,1.72,0.11,2.43-0.03c0.71-0.14,1.29-0.23,1.68,0.47c-0.86,0.5-1.35,0.41-2.43,0.89c2.06-0.33,4.16-0.57,4.15,1.12
						c-0.56,0.22-1.16,0.75-1.36,0.37c0.74,1,2.42,1.35,3.88,1.86c1.48,0.52,2.72,1.16,2.77,2.97c-4.15,1.54-0.59,1.68-3.57,3.94
						c0.65,0.31,1.36,0.63,2.02,0.92c0.33-0.57,0.67-1.13,1.02-1.68c0.43,0.67,1.44,0.89,2.31,1.13c0.85,0.25,1.6,0.51,1.63,1.45
						c-0.65,0.05-1.31,0.08-1.99,0.09c0.89,0.65,1.78,1.28,2.74,1.85c-0.11-0.77-0.23-1.51-0.25-2.26c1.24-0.05,2.07-0.95,2.66-1.49
						c0.59-0.55,0.95-0.82,1.27,0.22c-0.28-0.01,0,0.28,0.17,0.77c0.18,0.49,0.29,1.23-0.2,2.27c0,0,0,0-0.01,0
						c1.28-0.44,2.62-0.91,2.7,0.43c-0.63,1.05-2.95,2.89-3.37,3.59c2.59-1.86,2.82,1.41,5.67-0.43c-0.73,0.38-2.09,1.79-2.3,2.14
						l2.13-1.47c-0.13,1-0.34,1.35-1.49,2.41c0.97,1.58,2.87-3.81,3-0.85c-0.26,0.03-0.47,0.36-0.99,0.39
						c0.82,2.23,4.08,1.77,4.57,4.05c-2.3,3.02-1.85-0.57-3.66,2.11c2.43,1.45,7.23,1.08,8.39,3.71l-0.01-0.66
						c2.11-1.61,1.96-0.77,1.6,0.36c-0.35,1.14-0.92,2.58,0.48,2.3c-0.52-0.01-2.55,1.55-2.03,1.24c0.54,1.9,3.3,2.04,6.36,3.28
						l-1.31,0.53c-0.33,1.57,1.04,2.72,1.19,4.01c1.32-0.48,1.52,0.19,2.94-1.24c-2.22,3.64-0.54,4.47,1.39,5.28
						c1.87,0.81,3.87,1.65,1.81,4.57c-0.2-0.33-1.49-0.22-1.34,0.04c0.82,0.57,1.59,1.19,2.37,1.81c1.95-1.25,1.08-0.96,2.41-2.32
						c1.37-0.32,2.68-0.09,3,0.54c-1.94-0.44-3.3,1.7-4.21,2.75c0.59-0.4,1.37-0.58,2-0.95c-3.03,3.12,4.28-1.85,2.7,1.18
						l-1.14,0.43c0.88,0.41,2.62,0.36,2.65,1.26c-2.28,1.43-1.47-0.2-3.48,0.69c0.6,0.94,5.54-0.08,3.54,1.97
						c-0.88-0.14-1.18-0.76-2.06-0.89c-2.39,2.32-1.62,2.09-1.73,3.04l0.03-0.1c-0.16,0.76-0.35,1.53-0.54,2.3l0.59-0.78
						c6.95-1.46,2.28,2.14,7.25,2.16c-4.72-0.08-2.43,0.67-5.29,1.69c-0.59,0.77-1.18,1.79-2.05,1.92c2.6-0.08-1.24,2.1,2.54,1.95
						c-0.88,0.41,0.26,0.93-2.09,1.64c1.14,0.8,1.48-0.87,2.65-1.23c1.88,0.23,1.33,1.59,0.95,2.97c-0.39,1.39-0.61,2.82,1.98,3.25
						c2.54,1.47,5.8,0.73,8.04,2.19c-1.23,1.2-3.54,0.65-3.54,0.65c-0.97,1.57-0.43,2.29,0.98,2.94c-0.87,0.08-1.48,0.53-2.4,1.21
						c0.53,0.73,3.54-0.63,2.57,0.93c-1.09,0.17-2.82,0.51-3.99,0.48c1.19,0.66,3.24,1.01,4.42,1.73c-1.51,0.82-2.65,0.24-3.82,0.25
						c1.12,0.86,2.45,2.41,5.12,1.89l0.66-1.04c0.27,0.37-2.11,0.96-2.68,0.82c-2.32-0.28,0.4-1.7,1.31-2.08l0.84,0.51
						c5.16-2.61-1.87-2.58-2.06-4.11l4.14-0.78l-3.78-0.33c0.91-0.67,3.02-1.67,3.86-1.16c1.57-1.73-1.72-0.42,0.13-2.08
						c0.3-0.22,0.51-0.24,0.69-0.21l-1.52-0.6c0.89-0.1,2.7-1.16,2.36-0.33c1.61-2.65-4.01-1.87-1.29-3.64l0.3,0.06
						c-2.25-2.04-2.96,0.81-7.01,0.18l6.58-3.92l-2.95,0.83c0.01-0.3,0.03-0.89,1.21-1.23c-2.33-0.22-1.18,0.63-3.24,0.78
						c2.11-2.24-2.55-2.93,1.87-5c-2.33,0.41-1.2,1.85-3.22,1.12c4.7-2.31-1.42-1.2,0.34-3.22c2.65-0.68,1.76,0.95,3.53-1.1
						c-4.51,1.05-0.01-2.6-1.23-3.24c-3.38,1.38-2.23-1.5-4.1-2.6c1.15-0.39,0.46-3.82,0.92-5.9l0.57-0.22
						c-3.45,1.31-3.59-0.5-4.82-1.25c1.98-0.96,2.85-1.16,4.04-0.99l-0.55-1.05c-1.17,0.29-1.89,0.25-2.6-0.23l2.56-1.01
						c-0.86-1.36-4.37-1.24-3.75-3.91c-2.26,1.21-5.43,4.89-7.9,3.99c1.16-0.76,3.16-2.03,3.92-1.84c-0.24-0.07-1.3,0.03-0.97-0.58
						l2.42-0.45c0.44-1.31-1.9,0.56-2.09-0.15c1.71-1,0.93-1.18,2.33-1.89c0.26,0.06-0.36,0.96,0.45,0.81
						c-0.13-0.88,0.34-2.34,1.44-3.42c-0.92,0.65-2.27,1.39-2.8,1.01c-0.95-1.26,1.73-1.72,2.09-3.06c-1.36,0.41-0.71-1.24-3.2,0.37
						c-0.25-0.39,0.85-1.22,1.41-1.82c-1.56,0.04-2.51-2.97-4.55-0.4l-0.05,0.29c-0.07,0-0.1-0.03-0.18-0.03c0,0.01,0,0,0,0.01
						l0-0.01c-1.92-0.25-2.41-1.54-2.74-3c-0.33-1.45-0.49-3.09-1.84-3.68l0.77-0.62c-1.88-0.47-2.75-2.27-5.08-1.67
						c-0.3-0.33,0.62-1.99,1.63-2.63c-1.36-0.39-2.26,0.27-2.22-2.11c2.07-0.28,0.84-1.35,1.76,0.06c-0.43-1.72,0.48-3.12-2.64-2.44
						c2.23-1.34,1.47-3.05,0.4-3.06l-0.53,2.05c-0.85-0.34-1.19-1.01-1.55-1.69l2.64-2.05c0.3-2.6-1.96-2.39-3.89-2.32
						c-1.93,0.06-3.52-0.03-2.07-3.33c-2.2,1.12,0.12,2.38-2.29,3.84c-0.72-1.33,1.42-5.81,1.09-6.14c-0.22-2.71-4.65,2.32-5.32,0
						c-0.3,0.53-0.94,1.42-1.73,2.16c-0.4,0.37-0.84,0.7-1.29,0.92c-0.43,0.24-0.88,0.37-1.32,0.33c-0.32-0.6,0.32-1.75,1.21-2.72
						c0.88-0.97,1.98-1.81,2.52-1.91c0.23,0.09,0.04,0.42-0.25,0.7c0.54-0.08,1.14-0.2,1.79-1.37l-0.91,0.77
						c0.26-0.58,0.17-1.06,0.22-1.56c0.05-0.49,0.25-0.94,1.08-1.47c-1.28,0.21-1.7,1.04-1.8,1.83c0.25-1.01-0.02-1.39-0.38-1.76
						c-0.35-0.38-0.77-0.74-0.69-1.68c-0.42,0.55-1.45,1.51-1.58,1.31c-0.01-1.32-0.61-1.29-1.39-0.99
						c-0.78,0.28-1.72,0.79-2.39,0.17c1.06-1.77,3.9-1.87,1.72-2.62c0.53-1.55,2.62-1.76,3.67-1.88c-2.75-0.19-0.2-3.41-0.35-4.52
						l1.3,0.35c-0.78-0.22-0.98-0.61-1.23-1.05c-0.59,0.57-1.19,1.11-1.78,1.66c0.09-0.68-0.17-1.14,0.69-1.62
						c-1.64,0.27-3.19,2.37-5.6,2.45c0.64-1.28-2.3-1.31,0.19-3.24c0.45,2.73,2.54-1.93,4.12-0.32c-0.55-0.17-0.79-0.61-0.78-1.38
						c0.24-0.27,0.61-0.27,0.85-0.21c0.89-3.79-3.62,0.91-5.12-1.36c0.82-0.38,1.41-1,1.71-1.57c0.29-0.57,0.29-1.07-0.02-1.15
						c0.73,1.01-2.04,2.2-3.72,2.25c-0.06-2.28-2.08-0.88-2.52-1.63l0.2,1.21c-0.79,0.45-1.27,0.47-1.7,0.34
						c-0.42-0.11-0.8-0.38-1.37-0.57c0.94-1.02,1.36,0.05,1.54-0.64c-1.55,0.63-1.41-0.39-1.27-1.59c0.13-1.17,0.26-2.52-1.08-2.35
						c0.24-1.44,2.22-2.5,2.23-3.59c-1.54,0.17-1.53-0.63-1.54-1.51c0.01-0.88-0.02-1.79-1.47-1.75c-1,2.26-0.59,1.84-3.16,2.75
						c1.21,0.27,2.48,0.53,3.69,0.88c-1.31,0.38-2.61,0.81-3.88,1.27c0.75,0.63,2.58,0.2,2.76,0.91c-2.04,0.79-1.56,0.43-2.52,2.22
						c0.69-1.79-0.17-1.84-1.12-1.74c-0.96,0.09-1.96,0.29-1.84-1.11l3.62-4.67c-0.21-1.8-1.58-1.88-3.08-1.79
						c-1.49,0.05-3.1,0.29-4.05-1.17l0.32,1.41c-1.57,1.77-1.79-0.71-3.13-0.36c1.05-1.67,0.85-2.62,1.05-3.91
						c-0.64,1.32-2.01-1.21-4.02,2.2c-0.02-0.97-0.04-1.94-0.09-2.93c-0.9-1.04-2.15-0.02-3.34,1.03c-1.2,1.05-2.37,2.2-3.27,1.47
						c1.44-1.73,0.99-3.43,3.03-4.25c-0.72-0.32-1.24-0.92-1.76,0.35c0.02-1.34-2.95,1.71-2.94-0.29c-0.6,0.7-1.4,2.61-2.13,2.18
						c0.05-0.41,0.33-0.92,0.33-0.92c-0.34,0.92-1.66,0.82-1.7,3.13c-0.04-3.28-1.62-3.69-3.15-3.93c-1.5-0.25-3.14-0.36-3.51-3.18
						c-1.86,0.22-4,0.42-5.54,0.33c0.19-0.57,0.16-0.97,0.42-0.72c-1.87-2.14-2.12,5.37-4.12,3.08c-0.85-3.31,1.44-1.57,0.83-2.86
						c0.22-3.24-0.58-3.13-1.54-2.65c-0.97,0.49-2.07,1.27-2.8-0.64l0.43-0.36c-0.58-1.13-1.42-0.56-2.32,0.24
						c-0.91,0.82-1.87,1.84-2.88,1.62c0,0,0.1-0.58,0.01-0.98c-1.39,3.32-3.84,4.48-5.6,5.56c0.39-2.58,0.75-1.4,0.21-3.95
						c-0.82,0.43,0.52,4.12-1.05,4.96c-0.64-1.34-1.96-2.43-2.42-5.15l1.61-0.31c-1.17-3.46-2.11,0.32-3.01-0.18l-0.08-1.56
						c-2.47,0.82-1.92,4.72-4.52,4.86l0.46,1.12c-0.69,4.07-1.56-1.96-2.4,1.16l-1.18-3.79c-0.37,0.59-1.02,1.64-1.73,2.79
						c-0.71,1.13-1.48,2.21-2.18,2.82c0.1-3.12,1.81-5.01,2.76-7.02c-0.99,0.2-3.35,1.07-3.31,3.1c0.27-0.49,0.54-1.53,1.07-1.04
						c-0.23,1.64-0.58,2.94-1.1,3.89c-0.52,0.95-1.22,1.51-2.1,1.77c-1.01-3.7-2.36-3.75-3.86-3.51c-1.48,0.27-3.06,0.83-4.87-1.65
						c-1.06,2-2.73,2.38-4.57,2.61c-1.87,0.2-3.89,0.25-5.54,1.36c3.99,4.61-0.92,0.69,2.17,5.97c-0.59,0.76-0.93,0.83-1.19,0.52
						c-1.37-0.65-2.72-1.27-4.11-1.89c-1.44-1.23,0.07-1.59-0.67-2.75c-1.95,0.56-2-1.85-3.96-2.6c1.32,1.76,0.98,3.06-0.41,2.9
						l2.77,1.64c-0.68,4.17-4.66-3.23-5.33,0.95l-0.26-2.09c-0.63,1.69-4.42,2.65-2.94,7.52c-0.58-0.47-1.73-1.72-1.46-2.41
						c-3.16,1.1-3.27,8.23-6.94,6.95l-0.59-1.39c-0.26,0.67,0.62,2.92-0.79,2.03c-0.29-0.55-0.59-1.39-0.86-1.33
						c0,0.61,0.1,3.02-0.98,2.65l-0.34-1.76c-1.72-0.1-2.12,1.32-2.33,3.04c-0.2,1.73-0.22,3.75-1.06,4.78
						c-2.07-3.88-4.65-4.15-5.9-4.35l-0.24-0.58c-2.99,0.84-3.28,5.51-5.56,8.21c-1.84-1.87-3-1.99-4.24-1.94
						c-1.21,0.06-2.56,0.26-3.82-0.99c0.42,0.77,0.23,3.43-0.23,3.9c-0.62-0.85-1.69,3.12-1.69-0.91l0.23,0.07
						c-0.28-1.97-0.78-2.69-1.21-2.94c-0.39-0.25-0.84-0.02-1.27-0.1l-0.43,5.27c-0.55-1.95-1.18-2.79-1.93-3.08
						c-0.75-0.29-1.62-0.04-2.51,0.23c-1.76,0.53-3.59,1.06-3.63-2.48c-0.98,1.14-1.86,0.92-2.89,2.02l0.7-2.74
						c-1.83-1.19-2.74-1.79-5.57-1.82l1.05-1.82c-0.37-0.14-0.8,0.25-1.26,0.92c-0.25,0.33-0.44,0.74-0.62,1.19
						c-0.21,0.48-0.41,0.95-0.61,1.41c-0.84,1.94-1.8,3.87-2.36,3.77c0.34-1.37,0.69-2.74,1.07-4.1c-0.85-0.26-1.33-1.45-1.91-2.22
						c-0.6-0.79-1.33-1.16-3.18-0.05c0.36-0.51,1.05-1.51,1.39-1.5c-0.73-0.53-1.22-4.27-4.42,0.56c2.44-2.89-2.09-2.04-4.21-1.51
						l1.83-2.11c-3.1,2.14-3.7,2.91-5.64,2.72c-0.1-0.53,1.05-2,1.04-1.12c-0.18-1.94-2.4,1.52-2.75-0.61l1.53-1.08
						c-0.9-0.95-1.38-0.12-3.23,1.07c-1.35,0.37-1.47-2.09,0.06-4.11c-1.11,1.07-2.99,2.18-3.04,1.14c0.57-0.77,1.16-1.03,1.44-1.16
						c-0.05-0.68-0.33-0.99-0.73-1.13c-0.38-0.12-0.99-0.19-1.5-0.19c-1.05-0.03-1.96-0.07-1.59-1.62c0.61-0.69,0.86-1.1,0.95-1.39
						c1.3,1.34,2.27,2.49,2.03,2.54c1.79-1.85,1.01-3.22,4.34-4.94c-2.23,0.55-6.63,2.15-6.85,0.27c0.12-0.23,0.24-0.45,0.47-0.78
						l0.31-0.1c-0.07-0.42-0.45-0.45-0.96-0.34c-0.05-0.63-0.05-1.06-0.35-1.4c1.34-1.66-0.46-2.02-0.94-2.62
						c-1.89,2.09-2.29,1.09-3.21,3.4c0.05-0.22,0.33-0.15,0.77,0.11c0.14,0.02,0.26,0.08,0.43,0.01c-0.06,0.04-0.13,0.09-0.21,0.14
						c0.41,0.28,0.92,0.68,1.48,1.15c-1.41,0.63-2.68,1.08-2.21-0.63c-1.52,1.05-3.1,2.11-3.87,2.58c1.95-3.55,1.97-6.44,3.42-8.4
						c-2.74-0.41-4.64-2.92-9.28-0.02c-0.94,0.06,0.49-1.61,0.87-2.39c0.63-0.13,0.9,0.23,1.57-0.19c-1.87,0.11-3.17-2.22-5.9,0.28
						c-0.06-2.33,2.98-1.87,0.93-2.95l0.99-0.62c0.77-7.32-11.64,2.07-10.07-6.79c-0.07,0.57-0.09,0.84-0.46,1.34
						c-1.79-6.2-10.51-5.46-10.85-13.05c-0.39-1.84-2.13-0.24-4.05,0.42l1.83-2.42l-3.57,1.42c-3.43,0.26,2.26-8.08-3.16-6.61
						l-1.15,1.72c-0.48-1-3.2-1.43-1.44-2.99c-0.33,0.19-1.72,1.27-1.27,0.23l1.08-1.15l-3.72,0.15c-0.6-2.2,4.62-4.25,2.81-6.48
						c-1.18-0.31-5.4,1.11-5.87,2.14c0.25,0.36,0.09,1.48-1.01,2.62l-1.28-0.11c-3.42,3.17-7.36,5.97-7.9,10.02l3.23-0.8l-1.2,1.99
						l-1.13-0.92c-0.91,2.09,0.78,1.13,2.1,0.62c-0.75,0.95-1.17,1.72-1.23,2.28l4.33-1.99c-1.13,1.45-3.07,2.05-2.97,3.56
						c2.01-0.92,2.32-3.45,4.2-3.5c-0.9,2.09-2.27,3.15-0.32,2.54c-0.74,0.95-1.42,1.36-2.06,1.47c1.62-0.42,2.06,1.15,4.1-0.32
						c-1.2,2.47,2.55,1.52-0.56,4.64c0.93-0.57,3.49-1.46,4.18-1.05c-4.68,2.83,1.91,2.25-2.26,6.09c4.04-2.71,4.24,1.11,7.41,0.48
						c-0.33,0.2-1.01,0.62-0.96,0.33c0.5,1.01-0.25,2.26-0.37,3.38c2.78-2.77,4.59-2.3,6.88-3.46c-1.64,3.64-3.71,2.83-5.89,5.76
						c2.12-2.36,3.81-0.79,5.29-3.02c-0.87,2.38-0.15,1.41-1.99,4.13c3.46-3.47,1.24,0.02,3.88-1.63c-0.6,2.74-2.85,3.61-0.69,3.59
						C895.35,292.3,893.15,292.62,893.15,292.62z M925.96,311.61c-0.02,0.02-0.03,0.03-0.04,0.04c-0.28-0.17-0.51-0.32-0.66-0.41
						C925.41,311.33,925.6,311.44,925.96,311.61z M928.22,313.72c-0.19-0.34-0.52-0.68-0.89-1.01c0.59-0.78,1.37-1.42,1.56-1.16
						C928.32,311.9,928.46,312.81,928.22,313.72z M936.89,295.07c0.64,0.06,0.38,0.57,0.03,1.04c-0.2-0.13-0.47-0.25-0.87-0.36
						c-0.07,0.05-0.2,0.15-0.28,0.21C936.18,295.6,936.57,295.27,936.89,295.07z"/>
					<path class="st1" d="M933.71,297.13c-0.09-0.01-0.2,0.05-0.29,0.01c-0.1,0.25-0.17,0.47-0.22,0.66
						c0.25-0.18,0.51-0.36,0.73-0.52C933.86,297.23,933.78,297.17,933.71,297.13z"/>
					<path class="st1" d="M1169.4,359.12l0.01-0.09c-0.06,0.11-0.12,0.22-0.24,0.35C1169.25,359.26,1169.32,359.21,1169.4,359.12z"
						/>
					<polygon class="st1" points="967.7,341.35 967.84,340.66 967.41,341.2 					"/>
					<path class="st1" d="M1169.85,378.73c-0.21,0.14-0.41,0.31-0.55,0.52C1169.47,379.16,1169.66,378.96,1169.85,378.73z"/>
					<path class="st1" d="M1172.34,385.46l-0.5,1.33C1172.19,386.15,1172.3,385.76,1172.34,385.46z"/>
					<path class="st1" d="M1173.22,391.08c0.48-0.12,0.83-0.25,1.16-0.36c0.01-0.01,0.01-0.01,0.02-0.02L1173.22,391.08z"/>
					<path class="st1" d="M1119.81,322.37c-0.04-0.03-0.1-0.04-0.18-0.02C1118.93,322.4,1119.33,322.5,1119.81,322.37z"/>
					<path class="st1" d="M1140.56,340.15c-0.55,0.19-1.09,0.37-1.52,0.4C1139.24,341.04,1139.47,341.33,1140.56,340.15z"/>
					<path class="st1" d="M1097.96,312.12c0.01-0.03,0.01-0.01,0.02-0.04c-0.05-0.01-0.1-0.04-0.15-0.06L1097.96,312.12z"/>
					<path class="st1" d="M1138.08,339.6c0.08,0.86,0.41,0.99,0.95,0.96C1138.87,340.15,1138.76,339.66,1138.08,339.6z"/>
					<path class="st1" d="M1180.46,414.24l-0.02,0.3c0.17-0.06,0.32-0.1,0.44-0.12L1180.46,414.24z"/>
					<path class="st1" d="M1180.87,414.42l0.41,0.18C1181.24,414.47,1181.18,414.36,1180.87,414.42z"/>
					<path class="st1" d="M1182.16,414.97l-0.88-0.37C1181.35,414.81,1181.35,415.09,1182.16,414.97z"/>
					<path class="st1" d="M1179.22,406.77l-0.99,0.26C1178.44,407.01,1178.76,406.93,1179.22,406.77z"/>
					<path class="st1" d="M1178.18,404.74c-0.03,0.58-1.59,2.01-0.74,2.5l0.79-0.21C1176.68,407.22,1179.98,404.64,1178.18,404.74z"
						/>
					<path class="st1" d="M1186.62,391.38l-0.05,2.11c0.89-0.7,2.09-1.65,2.66-0.91C1191.35,389.11,1187.15,393.92,1186.62,391.38z"
						/>
					<path class="st1" d="M1185.81,385.15c0.88,0.79,1.45-0.62,2.04-0.8C1186.67,384.1,1186.38,384.05,1185.81,385.15z"/>
					<path class="st1" d="M1162.34,346.77l1.98-1.63C1163.47,344.76,1163.57,345.8,1162.34,346.77z"/>
					<polygon class="st1" points="1147.09,349.91 1146.48,351.56 1148.39,350.16 					"/>
					<polygon class="st1" points="1156.31,333.46 1156.83,333.45 1155.19,333.15 					"/>
					<path class="st1" d="M1097.82,286.1l-0.6,3.1C1097.96,288.83,1099.12,285.48,1097.82,286.1z"/>
					<path class="st1" d="M1062.78,288.03c-0.62-1.49-1.76-2.33-2.05-0.69C1061.51,287.4,1062.47,288.49,1062.78,288.03z"/>
					<path class="st1" d="M979.7,317.75l0.53-1.02c-0.3,0.27-0.6,0.54-0.93,0.8L979.7,317.75z"/>
				</g>
			</g>
		</g>
	</g>
</g>
<g>
	<path class="st2" d="M1240.5,328c-1.1,69.41-68.1,115.27-129.6,130.96c-82.27,21.28-188.95,3.55-242.37-67.67
		C855.21,373,847.15,350.74,847,328c-0.1-19.92,5.87-39.7,16.22-56.65c50.26-78.63,162.91-99.34,248.23-76.52
		C1173.21,211.16,1240.12,258.19,1240.5,328L1240.5,328z M1239.5,328c-0.34-33.7-17.92-62.75-43.23-83.99
		c-83.54-70.22-253.62-64.86-321.17,25.36c-26.24,34.51-26.51,82.82-0.66,117.71c24.99,35.16,65.59,56.62,106.81,67.27
		c71.88,17.87,157.94,7.36,215.81-41.48C1222.13,391.24,1239.52,361.76,1239.5,328L1239.5,328z"/>
</g>
<g>
	<g>
		<path class="st3" d="M1021.7,315.21"/>
	</g>
</g>
<g>
	<path class="st4" d="M851.5,326c-0.17,33.54,17.22,64.04,42.03,85.75c57.78,49.84,144.2,60.75,216.54,42.42
		c60.17-15.13,125.68-60.42,125.93-128.17c-1.09-67.43-66.65-111.3-126.51-125.91c-71.39-17.7-157.59-7.36-215.17,41.04
		C869.29,262.45,851.69,292.52,851.5,326L851.5,326z M850.5,326c-0.33-33.73,16.99-65.12,41.29-87.68
		c58.11-53.47,145.15-67.04,220.27-48.32c63.67,15.67,131.82,64.36,131.94,136c-0.93,71.32-69.15,118.61-132.51,133.74
		c-74.5,18.05-160.6,5.2-218.9-46.94C868.05,390.6,850.53,359.67,850.5,326L850.5,326z"/>
</g>
<ellipse class="st5" cx="1845" cy="370.5" rx="180.5" ry="139"/>
</svg>
